%TF.GenerationSoftware,KiCad,Pcbnew,8.0.8+dfsg-1*%
%TF.CreationDate,2025-07-28T19:23:34+05:30*%
%TF.ProjectId,SysMon_main,5379734d-6f6e-45f6-9d61-696e2e6b6963,1*%
%TF.SameCoordinates,Original*%
%TF.FileFunction,Paste,Top*%
%TF.FilePolarity,Positive*%
%FSLAX46Y46*%
G04 Gerber Fmt 4.6, Leading zero omitted, Abs format (unit mm)*
G04 Created by KiCad (PCBNEW 8.0.8+dfsg-1) date 2025-07-28 19:23:34*
%MOMM*%
%LPD*%
G01*
G04 APERTURE LIST*
G04 Aperture macros list*
%AMRoundRect*
0 Rectangle with rounded corners*
0 $1 Rounding radius*
0 $2 $3 $4 $5 $6 $7 $8 $9 X,Y pos of 4 corners*
0 Add a 4 corners polygon primitive as box body*
4,1,4,$2,$3,$4,$5,$6,$7,$8,$9,$2,$3,0*
0 Add four circle primitives for the rounded corners*
1,1,$1+$1,$2,$3*
1,1,$1+$1,$4,$5*
1,1,$1+$1,$6,$7*
1,1,$1+$1,$8,$9*
0 Add four rect primitives between the rounded corners*
20,1,$1+$1,$2,$3,$4,$5,0*
20,1,$1+$1,$4,$5,$6,$7,0*
20,1,$1+$1,$6,$7,$8,$9,0*
20,1,$1+$1,$8,$9,$2,$3,0*%
G04 Aperture macros list end*
%ADD10RoundRect,0.250000X-0.450000X0.262500X-0.450000X-0.262500X0.450000X-0.262500X0.450000X0.262500X0*%
%ADD11RoundRect,0.243750X-0.456250X0.243750X-0.456250X-0.243750X0.456250X-0.243750X0.456250X0.243750X0*%
%ADD12RoundRect,0.250000X0.262500X0.450000X-0.262500X0.450000X-0.262500X-0.450000X0.262500X-0.450000X0*%
%ADD13RoundRect,0.150000X-0.587500X-0.150000X0.587500X-0.150000X0.587500X0.150000X-0.587500X0.150000X0*%
%ADD14RoundRect,0.250000X-0.475000X0.250000X-0.475000X-0.250000X0.475000X-0.250000X0.475000X0.250000X0*%
%ADD15RoundRect,0.200000X0.275000X-0.200000X0.275000X0.200000X-0.275000X0.200000X-0.275000X-0.200000X0*%
%ADD16RoundRect,0.250000X0.475000X-0.250000X0.475000X0.250000X-0.475000X0.250000X-0.475000X-0.250000X0*%
%ADD17RoundRect,0.250000X-0.262500X-0.450000X0.262500X-0.450000X0.262500X0.450000X-0.262500X0.450000X0*%
%ADD18RoundRect,0.125000X0.125000X-0.625000X0.125000X0.625000X-0.125000X0.625000X-0.125000X-0.625000X0*%
%ADD19RoundRect,0.125000X0.625000X-0.125000X0.625000X0.125000X-0.625000X0.125000X-0.625000X-0.125000X0*%
G04 APERTURE END LIST*
D10*
%TO.C,R1*%
X191225343Y-82496512D03*
X191225343Y-84321512D03*
%TD*%
D11*
%TO.C,D34*%
X181610000Y-132080000D03*
X181610000Y-133955000D03*
%TD*%
D12*
%TO.C,R43*%
X176535399Y-84926551D03*
X174710399Y-84926551D03*
%TD*%
D13*
%TO.C,Q2*%
X174831995Y-78539819D03*
X174831995Y-80439819D03*
X176706995Y-79489819D03*
%TD*%
D14*
%TO.C,C11*%
X197728732Y-99110000D03*
X197728732Y-101010000D03*
%TD*%
D15*
%TO.C,R39*%
X203962000Y-96329000D03*
X203962000Y-94679000D03*
%TD*%
D13*
%TO.C,Q1*%
X175925000Y-67528400D03*
X175925000Y-69428400D03*
X177800000Y-68478400D03*
%TD*%
D14*
%TO.C,C2*%
X193395600Y-95468400D03*
X193395600Y-97368400D03*
%TD*%
D12*
%TO.C,R49*%
X201572500Y-99314000D03*
X199747500Y-99314000D03*
%TD*%
D16*
%TO.C,C4*%
X193903600Y-78369200D03*
X193903600Y-76469200D03*
%TD*%
D12*
%TO.C,R45*%
X177605432Y-96367500D03*
X175780432Y-96367500D03*
%TD*%
D17*
%TO.C,R13*%
X190675000Y-93250000D03*
X192500000Y-93250000D03*
%TD*%
D14*
%TO.C,C1*%
X195580000Y-95488800D03*
X195580000Y-97388800D03*
%TD*%
D16*
%TO.C,C3*%
X191770000Y-78369200D03*
X191770000Y-76469200D03*
%TD*%
D17*
%TO.C,R40*%
X175788431Y-72237500D03*
X177613431Y-72237500D03*
%TD*%
%TO.C,R42*%
X174705000Y-82397500D03*
X176530000Y-82397500D03*
%TD*%
D15*
%TO.C,R52*%
X206121000Y-81978000D03*
X206121000Y-80328000D03*
%TD*%
%TO.C,R51*%
X204089000Y-83819000D03*
X204089000Y-82169000D03*
%TD*%
D17*
%TO.C,R44*%
X175869080Y-93580072D03*
X177694080Y-93580072D03*
%TD*%
D15*
%TO.C,R50*%
X205486000Y-96329000D03*
X205486000Y-94679000D03*
%TD*%
D12*
%TO.C,R41*%
X177618593Y-74777499D03*
X175793593Y-74777499D03*
%TD*%
D18*
%TO.C,U2*%
X195200000Y-90900000D03*
X196000000Y-90900000D03*
X196800000Y-90900000D03*
X197600000Y-90900000D03*
X198400000Y-90900000D03*
X199200000Y-90900000D03*
X200000000Y-90900000D03*
X200800000Y-90900000D03*
D19*
X202175000Y-89525000D03*
X202175000Y-88725000D03*
X202175000Y-87925000D03*
X202175000Y-87125000D03*
X202175000Y-86325000D03*
X202175000Y-85525000D03*
X202175000Y-84725000D03*
X202175000Y-83925000D03*
D18*
X200800000Y-82550000D03*
X200000000Y-82550000D03*
X199200000Y-82550000D03*
X198400000Y-82550000D03*
X197600000Y-82550000D03*
X196800000Y-82550000D03*
X196000000Y-82550000D03*
X195200000Y-82550000D03*
D19*
X193825000Y-83925000D03*
X193825000Y-84725000D03*
X193825000Y-85525000D03*
X193825000Y-86325000D03*
X193825000Y-87125000D03*
X193825000Y-87925000D03*
X193825000Y-88725000D03*
X193825000Y-89525000D03*
%TD*%
D13*
%TO.C,Q3*%
X175925000Y-88558733D03*
X175925000Y-90458733D03*
X177800000Y-89508733D03*
%TD*%
M02*
