M48
; DRILL file {KiCad 8.0.8+dfsg-1} date 2025-07-28T19:24:01+0530
; FORMAT={-:-/ absolute / metric / decimal}
; #@! TF.CreationDate,2025-07-28T19:24:01+05:30
; #@! TF.GenerationSoftware,Kicad,Pcbnew,8.0.8+dfsg-1
; #@! TF.FileFunction,NonPlated,1,2,NPTH
FMAT,2
METRIC
; #@! TA.AperFunction,NonPlated,NPTH,ComponentDrill
T1C1.700
; #@! TA.AperFunction,NonPlated,NPTH,ComponentDrill
T2C3.200
; #@! TA.AperFunction,NonPlated,NPTH,ComponentDrill
T3C4.000
%
G90
G05
T1
X67.42Y-116.5
X67.42Y-136.0
X77.58Y-116.5
X77.58Y-136.0
X86.92Y-116.5
X86.92Y-136.0
X97.08Y-116.5
X97.08Y-136.0
X106.42Y-116.5
X106.42Y-136.0
X116.58Y-116.5
X116.58Y-136.0
X125.92Y-116.5
X125.92Y-136.0
X136.08Y-116.5
X136.08Y-136.0
X145.42Y-116.5
X145.42Y-136.0
X155.58Y-116.5
X155.58Y-136.0
X164.92Y-116.5
X164.92Y-136.0
X175.08Y-116.5
X175.08Y-136.0
T2
X59.0Y-65.0
X59.0Y-143.0
X216.0Y-64.77
X216.0Y-143.0
T3
X72.5Y-116.5
X72.5Y-136.0
X92.0Y-116.5
X92.0Y-136.0
X111.5Y-116.5
X111.5Y-136.0
X131.0Y-116.5
X131.0Y-136.0
X150.5Y-116.5
X150.5Y-136.0
X170.0Y-116.5
X170.0Y-136.0
M30
