%TF.GenerationSoftware,KiCad,Pcbnew,8.0.8+dfsg-1*%
%TF.CreationDate,2025-07-28T19:23:34+05:30*%
%TF.ProjectId,SysMon_main,5379734d-6f6e-45f6-9d61-696e2e6b6963,1*%
%TF.SameCoordinates,Original*%
%TF.FileFunction,Soldermask,Top*%
%TF.FilePolarity,Negative*%
%FSLAX46Y46*%
G04 Gerber Fmt 4.6, Leading zero omitted, Abs format (unit mm)*
G04 Created by KiCad (PCBNEW 8.0.8+dfsg-1) date 2025-07-28 19:23:34*
%MOMM*%
%LPD*%
G01*
G04 APERTURE LIST*
G04 Aperture macros list*
%AMRoundRect*
0 Rectangle with rounded corners*
0 $1 Rounding radius*
0 $2 $3 $4 $5 $6 $7 $8 $9 X,Y pos of 4 corners*
0 Add a 4 corners polygon primitive as box body*
4,1,4,$2,$3,$4,$5,$6,$7,$8,$9,$2,$3,0*
0 Add four circle primitives for the rounded corners*
1,1,$1+$1,$2,$3*
1,1,$1+$1,$4,$5*
1,1,$1+$1,$6,$7*
1,1,$1+$1,$8,$9*
0 Add four rect primitives between the rounded corners*
20,1,$1+$1,$2,$3,$4,$5,0*
20,1,$1+$1,$4,$5,$6,$7,0*
20,1,$1+$1,$6,$7,$8,$9,0*
20,1,$1+$1,$8,$9,$2,$3,0*%
G04 Aperture macros list end*
%ADD10R,1.800000X1.800000*%
%ADD11C,1.800000*%
%ADD12RoundRect,0.250000X-0.450000X0.262500X-0.450000X-0.262500X0.450000X-0.262500X0.450000X0.262500X0*%
%ADD13C,3.200000*%
%ADD14C,1.700000*%
%ADD15C,4.000000*%
%ADD16C,2.500000*%
%ADD17RoundRect,0.243750X-0.456250X0.243750X-0.456250X-0.243750X0.456250X-0.243750X0.456250X0.243750X0*%
%ADD18R,1.700000X1.700000*%
%ADD19O,1.700000X1.700000*%
%ADD20C,1.524000*%
%ADD21RoundRect,0.250000X0.262500X0.450000X-0.262500X0.450000X-0.262500X-0.450000X0.262500X-0.450000X0*%
%ADD22RoundRect,0.150000X-0.587500X-0.150000X0.587500X-0.150000X0.587500X0.150000X-0.587500X0.150000X0*%
%ADD23R,2.000000X2.000000*%
%ADD24C,2.000000*%
%ADD25R,3.200000X2.000000*%
%ADD26C,1.500000*%
%ADD27RoundRect,0.250000X-0.475000X0.250000X-0.475000X-0.250000X0.475000X-0.250000X0.475000X0.250000X0*%
%ADD28RoundRect,0.200000X0.275000X-0.200000X0.275000X0.200000X-0.275000X0.200000X-0.275000X-0.200000X0*%
%ADD29RoundRect,0.250000X0.475000X-0.250000X0.475000X0.250000X-0.475000X0.250000X-0.475000X-0.250000X0*%
%ADD30RoundRect,0.250000X-0.262500X-0.450000X0.262500X-0.450000X0.262500X0.450000X-0.262500X0.450000X0*%
%ADD31RoundRect,0.125000X0.125000X-0.625000X0.125000X0.625000X-0.125000X0.625000X-0.125000X-0.625000X0*%
%ADD32RoundRect,0.125000X0.625000X-0.125000X0.625000X0.125000X-0.625000X0.125000X-0.625000X-0.125000X0*%
%ADD33C,3.570000*%
G04 APERTURE END LIST*
D10*
%TO.C,D18*%
X131603000Y-81561500D03*
D11*
X134143000Y-81561500D03*
%TD*%
D10*
%TO.C,D17*%
X122603000Y-81561500D03*
D11*
X125143000Y-81561500D03*
%TD*%
D12*
%TO.C,R1*%
X191225343Y-82496512D03*
X191225343Y-84321512D03*
%TD*%
D10*
%TO.C,D19*%
X140603000Y-81561500D03*
D11*
X143143000Y-81561500D03*
%TD*%
D13*
%TO.C,H3*%
X216000000Y-143000000D03*
%TD*%
D14*
%TO.C,SW5*%
X125920000Y-116500000D03*
D15*
X131000000Y-116500000D03*
D14*
X136080000Y-116500000D03*
D16*
X134810000Y-119040000D03*
X128460000Y-121580000D03*
%TD*%
D17*
%TO.C,D34*%
X181610000Y-132080000D03*
X181610000Y-133955000D03*
%TD*%
D13*
%TO.C,H4*%
X59000000Y-143000000D03*
%TD*%
D18*
%TO.C,J6*%
X146050000Y-101463312D03*
D19*
X148590000Y-101463312D03*
X151130000Y-101463312D03*
%TD*%
D10*
%TO.C,D1*%
X77603000Y-71561500D03*
D11*
X80143000Y-71561500D03*
%TD*%
D20*
%TO.C,J4*%
X202692000Y-128524000D03*
X202692000Y-136144000D03*
X187452000Y-136144000D03*
X187452000Y-128524000D03*
%TD*%
D10*
%TO.C,D14*%
X95603000Y-81561500D03*
D11*
X98143000Y-81561500D03*
%TD*%
D21*
%TO.C,R43*%
X176535399Y-84926551D03*
X174710399Y-84926551D03*
%TD*%
D14*
%TO.C,SW10*%
X106420000Y-136000000D03*
D15*
X111500000Y-136000000D03*
D14*
X116580000Y-136000000D03*
D16*
X115310000Y-138540000D03*
X108960000Y-141080000D03*
%TD*%
D14*
%TO.C,SW12*%
X145420000Y-136000000D03*
D15*
X150500000Y-136000000D03*
D14*
X155580000Y-136000000D03*
D16*
X154310000Y-138540000D03*
X147960000Y-141080000D03*
%TD*%
D22*
%TO.C,Q2*%
X174831995Y-78539819D03*
X174831995Y-80439819D03*
X176706995Y-79489819D03*
%TD*%
D23*
%TO.C,SW1*%
X187452000Y-114000000D03*
D24*
X187452000Y-119000000D03*
X187452000Y-116500000D03*
D25*
X194952000Y-110900000D03*
X194952000Y-122100000D03*
D24*
X201952000Y-119000000D03*
X201952000Y-114000000D03*
%TD*%
D10*
%TO.C,D5*%
X113603000Y-71561500D03*
D11*
X116143000Y-71561500D03*
%TD*%
D14*
%TO.C,SW7*%
X164920000Y-116500000D03*
D15*
X170000000Y-116500000D03*
D14*
X175080000Y-116500000D03*
D16*
X173810000Y-119040000D03*
X167460000Y-121580000D03*
%TD*%
D26*
%TO.C,Y2*%
X111760000Y-104140000D03*
X116640000Y-104140000D03*
%TD*%
D10*
%TO.C,D26*%
X104603000Y-91561500D03*
D11*
X107143000Y-91561500D03*
%TD*%
D10*
%TO.C,D6*%
X122603000Y-71561500D03*
D11*
X125143000Y-71561500D03*
%TD*%
D10*
%TO.C,D31*%
X149603000Y-91561500D03*
D11*
X152143000Y-91561500D03*
%TD*%
D13*
%TO.C,H2*%
X216000000Y-64770000D03*
%TD*%
D10*
%TO.C,D3*%
X95603000Y-71561500D03*
D11*
X98143000Y-71561500D03*
%TD*%
D10*
%TO.C,D2*%
X86603000Y-71561500D03*
D11*
X89143000Y-71561500D03*
%TD*%
D10*
%TO.C,D21*%
X158603000Y-81561500D03*
D11*
X161143000Y-81561500D03*
%TD*%
D26*
%TO.C,Y1*%
X186690000Y-87430000D03*
X186690000Y-82550000D03*
%TD*%
D14*
%TO.C,SW8*%
X67420000Y-136000000D03*
D15*
X72500000Y-136000000D03*
D14*
X77580000Y-136000000D03*
D16*
X76310000Y-138540000D03*
X69960000Y-141080000D03*
%TD*%
D27*
%TO.C,C11*%
X197728732Y-99110000D03*
X197728732Y-101010000D03*
%TD*%
D10*
%TO.C,D22*%
X167603000Y-81561500D03*
D11*
X170143000Y-81561500D03*
%TD*%
D10*
%TO.C,D25*%
X95603000Y-91561500D03*
D11*
X98143000Y-91561500D03*
%TD*%
D10*
%TO.C,D15*%
X104603000Y-81561500D03*
D11*
X107143000Y-81561500D03*
%TD*%
D10*
%TO.C,D28*%
X122603000Y-91561500D03*
D11*
X125143000Y-91561500D03*
%TD*%
D28*
%TO.C,R39*%
X203962000Y-96329000D03*
X203962000Y-94679000D03*
%TD*%
D22*
%TO.C,Q1*%
X175925000Y-67528400D03*
X175925000Y-69428400D03*
X177800000Y-68478400D03*
%TD*%
D10*
%TO.C,D23*%
X77603000Y-91561500D03*
D11*
X80143000Y-91561500D03*
%TD*%
D27*
%TO.C,C2*%
X193395600Y-95468400D03*
X193395600Y-97368400D03*
%TD*%
D21*
%TO.C,R49*%
X201572500Y-99314000D03*
X199747500Y-99314000D03*
%TD*%
D14*
%TO.C,SW4*%
X106420000Y-116500000D03*
D15*
X111500000Y-116500000D03*
D14*
X116580000Y-116500000D03*
D16*
X115310000Y-119040000D03*
X108960000Y-121580000D03*
%TD*%
D10*
%TO.C,D27*%
X113603000Y-91561500D03*
D11*
X116143000Y-91561500D03*
%TD*%
D29*
%TO.C,C4*%
X193903600Y-78369200D03*
X193903600Y-76469200D03*
%TD*%
D21*
%TO.C,R45*%
X177605432Y-96367500D03*
X175780432Y-96367500D03*
%TD*%
D14*
%TO.C,SW13*%
X164920000Y-136000000D03*
D15*
X170000000Y-136000000D03*
D14*
X175080000Y-136000000D03*
D16*
X173810000Y-138540000D03*
X167460000Y-141080000D03*
%TD*%
D30*
%TO.C,R13*%
X190675000Y-93250000D03*
X192500000Y-93250000D03*
%TD*%
D10*
%TO.C,D10*%
X158603000Y-71561500D03*
D11*
X161143000Y-71561500D03*
%TD*%
D14*
%TO.C,SW2*%
X67420000Y-116500000D03*
D15*
X72500000Y-116500000D03*
D14*
X77580000Y-116500000D03*
D16*
X76310000Y-119040000D03*
X69960000Y-121580000D03*
%TD*%
D18*
%TO.C,SW14*%
X151130000Y-105511600D03*
D19*
X148590000Y-105511600D03*
X146050000Y-105511600D03*
%TD*%
D27*
%TO.C,C1*%
X195580000Y-95488800D03*
X195580000Y-97388800D03*
%TD*%
D29*
%TO.C,C3*%
X191770000Y-78369200D03*
X191770000Y-76469200D03*
%TD*%
D30*
%TO.C,R40*%
X175788431Y-72237500D03*
X177613431Y-72237500D03*
%TD*%
%TO.C,R42*%
X174705000Y-82397500D03*
X176530000Y-82397500D03*
%TD*%
D14*
%TO.C,SW11*%
X125920000Y-136000000D03*
D15*
X131000000Y-136000000D03*
D14*
X136080000Y-136000000D03*
D16*
X134810000Y-138540000D03*
X128460000Y-141080000D03*
%TD*%
D28*
%TO.C,R52*%
X206121000Y-81978000D03*
X206121000Y-80328000D03*
%TD*%
D14*
%TO.C,SW6*%
X145420000Y-116500000D03*
D15*
X150500000Y-116500000D03*
D14*
X155580000Y-116500000D03*
D16*
X154310000Y-119040000D03*
X147960000Y-121580000D03*
%TD*%
D28*
%TO.C,R51*%
X204089000Y-83819000D03*
X204089000Y-82169000D03*
%TD*%
D30*
%TO.C,R44*%
X175869080Y-93580072D03*
X177694080Y-93580072D03*
%TD*%
D10*
%TO.C,D9*%
X149603000Y-71561500D03*
D11*
X152143000Y-71561500D03*
%TD*%
D10*
%TO.C,D20*%
X149603000Y-81561500D03*
D11*
X152143000Y-81561500D03*
%TD*%
D10*
%TO.C,D7*%
X131603000Y-71561500D03*
D11*
X134143000Y-71561500D03*
%TD*%
D10*
%TO.C,D29*%
X131603000Y-91561500D03*
D11*
X134143000Y-91561500D03*
%TD*%
D13*
%TO.C,H1*%
X59000000Y-65000000D03*
%TD*%
D10*
%TO.C,D13*%
X86603000Y-81561500D03*
D11*
X89143000Y-81561500D03*
%TD*%
D10*
%TO.C,D11*%
X167603000Y-71561500D03*
D11*
X170143000Y-71561500D03*
%TD*%
D10*
%TO.C,D30*%
X140603000Y-91561500D03*
D11*
X143143000Y-91561500D03*
%TD*%
D10*
%TO.C,D33*%
X167603000Y-91561500D03*
D11*
X170143000Y-91561500D03*
%TD*%
D10*
%TO.C,D32*%
X158603000Y-91561500D03*
D11*
X161143000Y-91561500D03*
%TD*%
D10*
%TO.C,D4*%
X104603000Y-71561500D03*
D11*
X107143000Y-71561500D03*
%TD*%
D10*
%TO.C,D12*%
X77603000Y-81561500D03*
D11*
X80143000Y-81561500D03*
%TD*%
D28*
%TO.C,R50*%
X205486000Y-96329000D03*
X205486000Y-94679000D03*
%TD*%
D14*
%TO.C,SW9*%
X86920000Y-136000000D03*
D15*
X92000000Y-136000000D03*
D14*
X97080000Y-136000000D03*
D16*
X95810000Y-138540000D03*
X89460000Y-141080000D03*
%TD*%
D10*
%TO.C,D16*%
X113603000Y-81561500D03*
D11*
X116143000Y-81561500D03*
%TD*%
D21*
%TO.C,R41*%
X177618593Y-74777499D03*
X175793593Y-74777499D03*
%TD*%
D31*
%TO.C,U2*%
X195200000Y-90900000D03*
X196000000Y-90900000D03*
X196800000Y-90900000D03*
X197600000Y-90900000D03*
X198400000Y-90900000D03*
X199200000Y-90900000D03*
X200000000Y-90900000D03*
X200800000Y-90900000D03*
D32*
X202175000Y-89525000D03*
X202175000Y-88725000D03*
X202175000Y-87925000D03*
X202175000Y-87125000D03*
X202175000Y-86325000D03*
X202175000Y-85525000D03*
X202175000Y-84725000D03*
X202175000Y-83925000D03*
D31*
X200800000Y-82550000D03*
X200000000Y-82550000D03*
X199200000Y-82550000D03*
X198400000Y-82550000D03*
X197600000Y-82550000D03*
X196800000Y-82550000D03*
X196000000Y-82550000D03*
X195200000Y-82550000D03*
D32*
X193825000Y-83925000D03*
X193825000Y-84725000D03*
X193825000Y-85525000D03*
X193825000Y-86325000D03*
X193825000Y-87125000D03*
X193825000Y-87925000D03*
X193825000Y-88725000D03*
X193825000Y-89525000D03*
%TD*%
D10*
%TO.C,D24*%
X86603000Y-91561500D03*
D11*
X89143000Y-91561500D03*
%TD*%
D10*
%TO.C,D8*%
X140603000Y-71561500D03*
D11*
X143143000Y-71561500D03*
%TD*%
D22*
%TO.C,Q3*%
X175925000Y-88558733D03*
X175925000Y-90458733D03*
X177800000Y-89508733D03*
%TD*%
D14*
%TO.C,SW3*%
X86920000Y-116500000D03*
D15*
X92000000Y-116500000D03*
D14*
X97080000Y-116500000D03*
D16*
X95810000Y-119040000D03*
X89460000Y-121580000D03*
%TD*%
D26*
%TO.C,J2*%
X208464000Y-95560000D03*
X208464000Y-98060000D03*
X208464000Y-100060000D03*
X208464000Y-102560000D03*
D33*
X211174000Y-92490000D03*
X216154000Y-99060000D03*
X211174000Y-105630000D03*
%TD*%
D20*
%TO.C,J1*%
X208534000Y-127762000D03*
X208534000Y-125222000D03*
X208534000Y-122682000D03*
X208534000Y-120142000D03*
X208534000Y-117602000D03*
X208534000Y-115062000D03*
X208534000Y-112522000D03*
X208534000Y-109982000D03*
%TD*%
D26*
%TO.C,J3*%
X208464000Y-76764000D03*
X208464000Y-79264000D03*
X208464000Y-81264000D03*
X208464000Y-83764000D03*
D33*
X211174000Y-73694000D03*
X216154000Y-80264000D03*
X211174000Y-86834000D03*
%TD*%
D24*
%TO.C,TP1*%
X198374000Y-139954000D03*
%TD*%
%TO.C,TP3*%
X186944000Y-139954000D03*
%TD*%
%TO.C,TP2*%
X205994000Y-139954000D03*
%TD*%
M02*
