%TF.GenerationSoftware,KiCad,Pcbnew,8.0.8+dfsg-1*%
%TF.CreationDate,2025-07-28T19:23:34+05:30*%
%TF.ProjectId,SysMon_main,5379734d-6f6e-45f6-9d61-696e2e6b6963,1*%
%TF.SameCoordinates,Original*%
%TF.FileFunction,Paste,Bot*%
%TF.FilePolarity,Positive*%
%FSLAX46Y46*%
G04 Gerber Fmt 4.6, Leading zero omitted, Abs format (unit mm)*
G04 Created by KiCad (PCBNEW 8.0.8+dfsg-1) date 2025-07-28 19:23:34*
%MOMM*%
%LPD*%
G01*
G04 APERTURE LIST*
G04 Aperture macros list*
%AMRoundRect*
0 Rectangle with rounded corners*
0 $1 Rounding radius*
0 $2 $3 $4 $5 $6 $7 $8 $9 X,Y pos of 4 corners*
0 Add a 4 corners polygon primitive as box body*
4,1,4,$2,$3,$4,$5,$6,$7,$8,$9,$2,$3,0*
0 Add four circle primitives for the rounded corners*
1,1,$1+$1,$2,$3*
1,1,$1+$1,$4,$5*
1,1,$1+$1,$6,$7*
1,1,$1+$1,$8,$9*
0 Add four rect primitives between the rounded corners*
20,1,$1+$1,$2,$3,$4,$5,0*
20,1,$1+$1,$4,$5,$6,$7,0*
20,1,$1+$1,$6,$7,$8,$9,0*
20,1,$1+$1,$8,$9,$2,$3,0*%
G04 Aperture macros list end*
%ADD10RoundRect,0.250000X0.262500X0.450000X-0.262500X0.450000X-0.262500X-0.450000X0.262500X-0.450000X0*%
%ADD11RoundRect,0.250000X0.450000X-0.262500X0.450000X0.262500X-0.450000X0.262500X-0.450000X-0.262500X0*%
%ADD12RoundRect,0.250000X-0.475000X0.250000X-0.475000X-0.250000X0.475000X-0.250000X0.475000X0.250000X0*%
%ADD13RoundRect,0.250000X-0.250000X-0.475000X0.250000X-0.475000X0.250000X0.475000X-0.250000X0.475000X0*%
%ADD14RoundRect,0.250000X0.503814X0.132583X0.132583X0.503814X-0.503814X-0.132583X-0.132583X-0.503814X0*%
%ADD15RoundRect,0.250000X0.475000X-0.250000X0.475000X0.250000X-0.475000X0.250000X-0.475000X-0.250000X0*%
%ADD16RoundRect,0.075000X0.075000X-0.662500X0.075000X0.662500X-0.075000X0.662500X-0.075000X-0.662500X0*%
%ADD17RoundRect,0.075000X0.662500X-0.075000X0.662500X0.075000X-0.662500X0.075000X-0.662500X-0.075000X0*%
%ADD18RoundRect,0.250000X0.512652X0.159099X0.159099X0.512652X-0.512652X-0.159099X-0.159099X-0.512652X0*%
%ADD19RoundRect,0.250000X0.250000X0.475000X-0.250000X0.475000X-0.250000X-0.475000X0.250000X-0.475000X0*%
G04 APERTURE END LIST*
D10*
%TO.C,R35*%
X213044500Y-117638000D03*
X211219500Y-117638000D03*
%TD*%
D11*
%TO.C,R3*%
X83500000Y-96000000D03*
X83500000Y-94175000D03*
%TD*%
D12*
%TO.C,C5*%
X186701319Y-90456785D03*
X186701319Y-92356785D03*
%TD*%
D11*
%TO.C,R5*%
X101750000Y-96162500D03*
X101750000Y-94337500D03*
%TD*%
D12*
%TO.C,C7*%
X142443200Y-107914400D03*
X142443200Y-109814400D03*
%TD*%
D13*
%TO.C,C13*%
X190906400Y-127304800D03*
X192806400Y-127304800D03*
%TD*%
D11*
%TO.C,R37*%
X187452000Y-111045000D03*
X187452000Y-109220000D03*
%TD*%
D14*
%TO.C,R47*%
X73202896Y-108862073D03*
X71912426Y-107571603D03*
%TD*%
D15*
%TO.C,C16*%
X123825000Y-98994000D03*
X123825000Y-97094000D03*
%TD*%
D11*
%TO.C,R10*%
X146750000Y-95662500D03*
X146750000Y-93837500D03*
%TD*%
D15*
%TO.C,C12*%
X125933200Y-98978800D03*
X125933200Y-97078800D03*
%TD*%
D11*
%TO.C,R8*%
X128750000Y-95412500D03*
X128750000Y-93587500D03*
%TD*%
D13*
%TO.C,C15*%
X137800000Y-99568000D03*
X139700000Y-99568000D03*
%TD*%
%TO.C,C14*%
X190936800Y-125171200D03*
X192836800Y-125171200D03*
%TD*%
D16*
%TO.C,U1*%
X135080000Y-108655000D03*
X134580000Y-108655000D03*
X134080000Y-108655000D03*
X133580000Y-108655000D03*
X133080000Y-108655000D03*
X132580000Y-108655000D03*
X132080000Y-108655000D03*
X131580000Y-108655000D03*
X131080000Y-108655000D03*
X130580000Y-108655000D03*
X130080000Y-108655000D03*
X129580000Y-108655000D03*
D17*
X128167500Y-107242500D03*
X128167500Y-106742500D03*
X128167500Y-106242500D03*
X128167500Y-105742500D03*
X128167500Y-105242500D03*
X128167500Y-104742500D03*
X128167500Y-104242500D03*
X128167500Y-103742500D03*
X128167500Y-103242500D03*
X128167500Y-102742500D03*
X128167500Y-102242500D03*
X128167500Y-101742500D03*
D16*
X129580000Y-100330000D03*
X130080000Y-100330000D03*
X130580000Y-100330000D03*
X131080000Y-100330000D03*
X131580000Y-100330000D03*
X132080000Y-100330000D03*
X132580000Y-100330000D03*
X133080000Y-100330000D03*
X133580000Y-100330000D03*
X134080000Y-100330000D03*
X134580000Y-100330000D03*
X135080000Y-100330000D03*
D17*
X136492500Y-101742500D03*
X136492500Y-102242500D03*
X136492500Y-102742500D03*
X136492500Y-103242500D03*
X136492500Y-103742500D03*
X136492500Y-104242500D03*
X136492500Y-104742500D03*
X136492500Y-105242500D03*
X136492500Y-105742500D03*
X136492500Y-106242500D03*
X136492500Y-106742500D03*
X136492500Y-107242500D03*
%TD*%
D11*
%TO.C,R11*%
X155500000Y-95750000D03*
X155500000Y-93925000D03*
%TD*%
%TO.C,R6*%
X110750000Y-96000000D03*
X110750000Y-94175000D03*
%TD*%
%TO.C,R12*%
X165000000Y-95500000D03*
X165000000Y-93675000D03*
%TD*%
D12*
%TO.C,C8*%
X140411200Y-107914400D03*
X140411200Y-109814400D03*
%TD*%
D11*
%TO.C,R9*%
X139000000Y-95662500D03*
X139000000Y-93837500D03*
%TD*%
D15*
%TO.C,C21*%
X189611000Y-105852000D03*
X189611000Y-103952000D03*
%TD*%
D10*
%TO.C,R36*%
X212790500Y-128052000D03*
X210965500Y-128052000D03*
%TD*%
D13*
%TO.C,C10*%
X107320000Y-104140000D03*
X109220000Y-104140000D03*
%TD*%
D10*
%TO.C,R46*%
X133350000Y-112268000D03*
X131525000Y-112268000D03*
%TD*%
D18*
%TO.C,C19*%
X71755000Y-110363000D03*
X70411498Y-109019498D03*
%TD*%
D11*
%TO.C,R38*%
X187452000Y-123237000D03*
X187452000Y-121412000D03*
%TD*%
%TO.C,R4*%
X92750000Y-95912500D03*
X92750000Y-94087500D03*
%TD*%
D19*
%TO.C,C18*%
X184653000Y-110998000D03*
X182753000Y-110998000D03*
%TD*%
D11*
%TO.C,R2*%
X74715800Y-95781500D03*
X74715800Y-93956500D03*
%TD*%
%TO.C,R53*%
X187452000Y-107616000D03*
X187452000Y-105791000D03*
%TD*%
D19*
%TO.C,C17*%
X184399000Y-121666000D03*
X182499000Y-121666000D03*
%TD*%
D11*
%TO.C,R7*%
X119750000Y-96000000D03*
X119750000Y-94175000D03*
%TD*%
%TO.C,R48*%
X65029002Y-124684800D03*
X65029002Y-122859800D03*
%TD*%
D19*
%TO.C,C9*%
X121280000Y-104140000D03*
X119380000Y-104140000D03*
%TD*%
D13*
%TO.C,C20*%
X63124002Y-127050800D03*
X65024000Y-127050800D03*
%TD*%
D15*
%TO.C,C6*%
X186609607Y-80128562D03*
X186609607Y-78228562D03*
%TD*%
M02*
