M48
; DRILL file {KiCad 8.0.8+dfsg-1} date 2025-07-28T19:24:01+0530
; FORMAT={-:-/ absolute / metric / decimal}
; #@! TF.CreationDate,2025-07-28T19:24:01+05:30
; #@! TF.GenerationSoftware,Kicad,Pcbnew,8.0.8+dfsg-1
; #@! TF.FileFunction,Plated,1,2,PTH
FMAT,2
METRIC
; #@! TA.AperFunction,Plated,PTH,ViaDrill
T1C0.300
; #@! TA.AperFunction,Plated,PTH,ViaDrill
T2C0.400
; #@! TA.AperFunction,Plated,PTH,ViaDrill
T3C0.500
; #@! TA.AperFunction,Plated,PTH,ComponentDrill
T4C0.762
; #@! TA.AperFunction,Plated,PTH,ComponentDrill
T5C0.800
; #@! TA.AperFunction,Plated,PTH,ComponentDrill
T6C0.900
; #@! TA.AperFunction,Plated,PTH,ComponentDrill
T7C1.000
; #@! TA.AperFunction,Plated,PTH,ComponentDrill
T8C1.500
; #@! TA.AperFunction,Plated,PTH,ComponentDrill
T9C2.380
%
G90
G05
T1
X60.198Y-117.348
X60.706Y-111.506
X60.706Y-122.936
X61.15Y-91.589
X61.214Y-98.552
X61.214Y-128.778
X61.214Y-133.35
X61.722Y-86.512
X61.722Y-104.648
X61.976Y-127.051
X63.944Y-79.143
X64.04Y-75.853
X64.072Y-73.169
X64.519Y-82.656
X65.227Y-128.676
X65.278Y-121.412
X66.294Y-110.236
X66.548Y-141.224
X67.056Y-89.281
X67.056Y-132.588
X67.088Y-86.598
X67.5Y-72.539
X67.564Y-79.502
X67.564Y-97.79
X67.564Y-103.378
X67.564Y-119.38
X67.596Y-69.249
X67.628Y-66.565
X68.072Y-126.238
X68.075Y-76.052
X69.24Y-107.848
X70.104Y-130.302
X72.453Y-88.661
X72.517Y-95.625
X72.549Y-85.371
X72.581Y-82.688
X72.773Y-99.522
X72.898Y-79.756
X72.932Y-104.153
X73.028Y-92.175
X73.092Y-75.916
X73.152Y-69.85
X73.156Y-72.69
X74.168Y-112.522
X75.946Y-103.759
X76.684Y-89.135
X76.708Y-109.474
X76.96Y-84.49
X76.962Y-78.994
X77.021Y-66.557
X77.25Y-96.0
X77.424Y-126.229
X77.724Y-130.81
X78.12Y-141.995
X78.74Y-64.008
X80.318Y-99.209
X81.382Y-83.566
X81.788Y-110.744
X82.0Y-95.0
X82.027Y-130.552
X82.042Y-76.2
X82.042Y-115.062
X82.042Y-119.126
X82.296Y-69.449
X82.296Y-90.745
X82.305Y-142.501
X82.388Y-86.375
X82.434Y-80.764
X82.55Y-137.16
X82.804Y-126.238
X82.994Y-104.409
X83.312Y-64.008
X83.814Y-100.542
X84.182Y-72.76
X85.598Y-126.492
X85.87Y-112.94
X85.979Y-87.503
X86.614Y-130.048
X86.666Y-84.168
X87.122Y-98.146
X87.733Y-142.685
X88.265Y-104.473
X88.392Y-132.08
X88.837Y-65.549
X89.916Y-125.73
X90.627Y-82.601
X90.753Y-110.779
X90.989Y-90.607
X91.081Y-85.271
X91.173Y-69.495
X91.173Y-95.437
X91.219Y-80.212
X91.403Y-76.532
X91.846Y-100.178
X92.701Y-108.096
X93.056Y-104.281
X93.943Y-142.823
X93.979Y-73.082
X93.98Y-112.776
X94.488Y-64.008
X94.577Y-84.352
X94.742Y-87.503
X97.199Y-99.255
X97.536Y-133.604
X97.79Y-112.522
X98.167Y-104.185
X98.312Y-142.409
X99.568Y-64.516
X99.729Y-90.285
X99.959Y-94.333
X100.051Y-85.133
X100.281Y-80.212
X100.419Y-75.888
X100.879Y-99.853
X101.063Y-69.771
X101.092Y-129.286
X101.346Y-125.73
X101.6Y-110.0
X101.6Y-114.046
X101.702Y-133.401
X101.702Y-137.77
X101.936Y-104.249
X102.464Y-118.618
X102.535Y-73.036
X103.317Y-80.35
X103.505Y-87.503
X103.602Y-143.605
X104.329Y-84.214
X104.648Y-65.532
X105.156Y-98.552
X105.918Y-133.604
X106.07Y-104.242
X106.426Y-113.538
X106.883Y-138.176
X107.442Y-130.048
X108.294Y-144.065
X108.356Y-125.374
X108.744Y-94.057
X108.836Y-69.495
X108.966Y-80.772
X109.25Y-85.501
X109.342Y-90.193
X109.48Y-76.026
X109.982Y-99.314
X110.49Y-111.252
X110.501Y-63.847
X110.642Y-105.461
X111.367Y-129.711
X112.056Y-73.542
X112.24Y-80.028
X112.395Y-87.503
X113.298Y-84.122
X114.3Y-104.14
X114.356Y-98.335
X114.641Y-143.053
X116.84Y-131.572
X117.145Y-123.19
X117.484Y-80.396
X117.602Y-112.268
X117.806Y-85.363
X117.856Y-98.4
X117.898Y-69.955
X117.99Y-90.147
X117.99Y-93.919
X118.358Y-76.348
X118.643Y-65.733
X120.498Y-98.806
X120.621Y-124.057
X120.65Y-132.842
X121.158Y-91.186
X121.163Y-80.902
X121.347Y-84.536
X121.412Y-73.914
X121.412Y-87.503
X121.92Y-97.409
X121.92Y-117.348
X122.001Y-142.041
X122.428Y-103.251
X122.507Y-110.442
X123.088Y-105.461
X123.19Y-65.786
X124.054Y-139.243
X124.46Y-105.216
X124.714Y-132.842
X124.866Y-125.171
X125.222Y-110.744
X125.404Y-64.537
X125.425Y-100.686
X125.772Y-129.53
X126.136Y-101.702
X126.217Y-119.104
X126.278Y-141.995
X126.683Y-83.616
X126.746Y-107.95
X126.775Y-94.241
X126.821Y-90.055
X127.005Y-69.909
X127.054Y-64.314
X127.097Y-76.118
X127.243Y-97.074
X128.422Y-109.626
X129.184Y-132.639
X129.443Y-80.534
X129.949Y-84.72
X130.0Y-107.0
X130.048Y-87.503
X130.048Y-125.73
X130.133Y-90.837
X130.171Y-112.34
X130.302Y-129.794
X130.501Y-73.68
X130.556Y-101.854
X130.655Y-110.26
X131.145Y-98.335
X131.946Y-107.061
X131.953Y-110.871
X132.258Y-143.605
X132.672Y-128.84
X133.067Y-107.175
X133.147Y-102.006
X133.452Y-104.75
X134.045Y-65.556
X134.185Y-98.625
X134.457Y-112.274
X135.026Y-106.477
X135.248Y-129.162
X135.744Y-69.219
X135.823Y-115.102
X135.89Y-98.034
X136.398Y-109.118
X137.109Y-97.333
X137.502Y-141.811
X137.668Y-126.492
X137.871Y-109.728
X138.033Y-101.797
X138.32Y-71.518
X138.684Y-107.061
X139.446Y-84.582
X139.5Y-77.0
X139.5Y-79.5
X139.573Y-87.376
X139.751Y-138.735
X140.157Y-103.804
X140.174Y-104.683
X140.25Y-89.75
X140.462Y-118.364
X140.462Y-132.842
X140.716Y-113.538
X141.0Y-98.716
X141.25Y-94.75
X141.635Y-64.13
X141.888Y-104.499
X142.239Y-129.346
X143.205Y-124.839
X143.51Y-105.41
X143.713Y-109.779
X144.401Y-142.961
X144.576Y-84.475
X144.668Y-69.633
X144.78Y-77.343
X144.797Y-90.326
X144.962Y-80.005
X145.034Y-96.774
X147.062Y-65.51
X147.428Y-71.472
X147.437Y-131.692
X147.612Y-118.895
X147.612Y-90.713
X147.75Y-77.0
X147.851Y-137.212
X147.888Y-80.281
X148.336Y-87.376
X148.605Y-84.034
X149.875Y-98.0
X149.967Y-128.702
X150.979Y-143.835
X152.812Y-64.176
X153.223Y-108.546
X153.683Y-80.225
X153.729Y-69.357
X153.904Y-84.972
X154.014Y-90.492
X154.07Y-95.239
X154.178Y-77.089
X154.483Y-106.883
X155.6Y-110.49
X156.464Y-130.556
X156.581Y-71.978
X156.667Y-98.755
X156.718Y-80.264
X157.0Y-101.0
X157.25Y-77.0
X157.353Y-87.376
X157.657Y-84.034
X157.785Y-139.141
X159.156Y-106.528
X159.203Y-109.834
X159.31Y-64.915
X159.766Y-124.46
X160.546Y-130.588
X160.63Y-101.041
X162.128Y-98.109
X162.331Y-69.219
X162.56Y-77.343
X162.625Y-90.271
X162.653Y-115.813
X163.26Y-135.74
X163.287Y-85.414
X163.343Y-80.446
X164.079Y-119.585
X164.18Y-143.375
X164.389Y-108.661
X165.182Y-71.978
X165.836Y-128.61
X165.913Y-99.67
X165.964Y-106.731
X166.065Y-124.612
X166.102Y-101.462
X166.37Y-79.502
X166.37Y-131.572
X166.5Y-77.0
X166.751Y-87.503
X168.365Y-83.979
X169.418Y-98.45
X169.418Y-132.283
X169.92Y-109.604
X169.926Y-68.936
X170.343Y-128.702
X170.739Y-121.412
X170.849Y-143.697
X171.348Y-89.764
X171.958Y-100.33
X172.161Y-106.68
X172.212Y-77.47
X172.358Y-81.638
X172.404Y-70.552
X172.404Y-86.283
X172.847Y-94.869
X173.838Y-113.386
X174.142Y-72.542
X174.295Y-92.354
X175.26Y-63.246
X176.784Y-97.917
X176.835Y-119.126
X176.875Y-130.772
X177.0Y-109.5
X177.05Y-123.219
X177.546Y-94.996
X177.749Y-84.836
X178.054Y-79.502
X178.577Y-86.573
X178.632Y-77.466
X178.807Y-102.3
X178.945Y-143.559
X178.963Y-91.43
X179.07Y-68.428
X179.184Y-80.722
X179.304Y-125.933
X179.865Y-138.086
X179.984Y-112.573
X180.594Y-120.04
X181.107Y-64.261
X181.429Y-70.608
X181.483Y-121.666
X181.61Y-104.089
X181.61Y-135.077
X182.321Y-82.804
X182.356Y-78.887
X182.423Y-87.884
X182.474Y-92.761
X182.474Y-96.825
X182.626Y-127.254
X182.753Y-109.855
X183.286Y-108.001
X183.5Y-116.0
X184.0Y-123.0
X184.15Y-130.302
X184.785Y-103.759
X185.369Y-98.501
X185.826Y-99.365
X185.89Y-138.04
X186.182Y-63.754
X186.281Y-143.662
X186.304Y-68.906
X186.588Y-77.267
X186.741Y-93.472
X188.0Y-132.0
X189.5Y-100.276
X189.611Y-102.997
X190.195Y-80.061
X190.675Y-92.0
X191.0Y-130.0
X191.008Y-107.696
X191.135Y-139.192
X192.024Y-97.384
X192.054Y-142.225
X192.126Y-80.061
X192.38Y-101.549
X192.5Y-85.25
X192.5Y-136.0
X192.583Y-107.645
X192.583Y-113.03
X192.634Y-72.288
X193.04Y-67.818
X193.072Y-65.135
X193.345Y-91.237
X193.548Y-132.588
X193.954Y-127.305
X194.005Y-125.171
X194.513Y-97.384
X195.428Y-79.705
X195.734Y-139.328
X195.936Y-85.039
X195.986Y-88.646
X196.976Y-134.268
X197.0Y-129.5
X197.16Y-105.244
X197.612Y-125.73
X197.68Y-80.518
X197.764Y-86.817
X197.815Y-119.329
X198.38Y-80.518
X198.633Y-144.564
X199.13Y-80.518
X199.644Y-97.688
X199.695Y-88.951
X199.746Y-85.293
X199.83Y-80.518
X200.085Y-69.638
X200.152Y-108.458
X200.181Y-66.348
X200.213Y-63.665
X200.457Y-101.448
X200.66Y-73.152
X201.168Y-131.953
X201.345Y-142.501
X201.879Y-126.136
X202.286Y-82.296
X203.047Y-124.057
X203.507Y-112.097
X204.318Y-86.004
X204.978Y-132.207
X205.994Y-103.632
X206.296Y-74.244
X206.451Y-126.594
X206.705Y-88.951
X206.959Y-96.622
X207.087Y-141.481
X208.291Y-141.903
X209.296Y-136.398
X209.328Y-133.715
X210.312Y-99.009
X211.0Y-115.0
X211.328Y-111.201
X211.5Y-122.0
X211.505Y-70.184
X212.5Y-125.0
X212.83Y-75.085
X214.071Y-112.573
X215.0Y-135.0
X216.34Y-72.237
X217.043Y-121.158
X217.069Y-78.198
X217.17Y-92.583
X217.283Y-105.361
X217.454Y-87.346
X217.5Y-132.5
X217.86Y-115.097
T2
X137.795Y-100.838
T3
X122.301Y-98.87
X185.42Y-107.95
X190.754Y-89.662
X191.77Y-86.106
X195.075Y-92.81
X196.125Y-92.81
X199.136Y-92.964
X199.644Y-93.98
X205.232Y-98.06
T4
X187.452Y-128.524
X187.452Y-136.144
X202.692Y-128.524
X202.692Y-136.144
X208.534Y-109.982
X208.534Y-112.522
X208.534Y-115.062
X208.534Y-117.602
X208.534Y-120.142
X208.534Y-122.682
X208.534Y-125.222
X208.534Y-127.762
T5
X111.76Y-104.14
X116.64Y-104.14
X186.69Y-82.55
X186.69Y-87.43
T6
X77.603Y-71.561
X77.603Y-81.561
X77.603Y-91.561
X80.143Y-71.561
X80.143Y-81.561
X80.143Y-91.561
X86.603Y-71.561
X86.603Y-81.561
X86.603Y-91.561
X89.143Y-71.561
X89.143Y-81.561
X89.143Y-91.561
X95.603Y-71.561
X95.603Y-81.561
X95.603Y-91.561
X98.143Y-71.561
X98.143Y-81.561
X98.143Y-91.561
X104.603Y-71.561
X104.603Y-81.561
X104.603Y-91.561
X107.143Y-71.561
X107.143Y-81.561
X107.143Y-91.561
X113.603Y-71.561
X113.603Y-81.561
X113.603Y-91.561
X116.143Y-71.561
X116.143Y-81.561
X116.143Y-91.561
X122.603Y-71.561
X122.603Y-81.561
X122.603Y-91.561
X125.143Y-71.561
X125.143Y-81.561
X125.143Y-91.561
X131.603Y-71.561
X131.603Y-81.561
X131.603Y-91.561
X134.143Y-71.561
X134.143Y-81.561
X134.143Y-91.561
X140.603Y-71.561
X140.603Y-81.561
X140.603Y-91.561
X143.143Y-71.561
X143.143Y-81.561
X143.143Y-91.561
X149.603Y-71.561
X149.603Y-81.561
X149.603Y-91.561
X152.143Y-71.561
X152.143Y-81.561
X152.143Y-91.561
X158.603Y-71.561
X158.603Y-81.561
X158.603Y-91.561
X161.143Y-71.561
X161.143Y-81.561
X161.143Y-91.561
X167.603Y-71.561
X167.603Y-81.561
X167.603Y-91.561
X170.143Y-71.561
X170.143Y-81.561
X170.143Y-91.561
T7
X146.05Y-101.463
X146.05Y-105.512
X148.59Y-101.463
X148.59Y-105.512
X151.13Y-101.463
X151.13Y-105.512
X186.944Y-139.954
X187.452Y-114.0
X187.452Y-116.5
X187.452Y-119.0
X198.374Y-139.954
X201.952Y-114.0
X201.952Y-119.0
X205.994Y-139.954
X208.464Y-76.764
X208.464Y-79.264
X208.464Y-81.264
X208.464Y-83.764
X208.464Y-95.56
X208.464Y-98.06
X208.464Y-100.06
X208.464Y-102.56
T8
X69.96Y-121.58
X69.96Y-141.08
X76.31Y-119.04
X76.31Y-138.54
X89.46Y-121.58
X89.46Y-141.08
X95.81Y-119.04
X95.81Y-138.54
X108.96Y-121.58
X108.96Y-141.08
X115.31Y-119.04
X115.31Y-138.54
X128.46Y-121.58
X128.46Y-141.08
X134.81Y-119.04
X134.81Y-138.54
X147.96Y-121.58
X147.96Y-141.08
X154.31Y-119.04
X154.31Y-138.54
X167.46Y-121.58
X167.46Y-141.08
X173.81Y-119.04
X173.81Y-138.54
T9
X211.174Y-73.694
X211.174Y-86.834
X211.174Y-92.49
X211.174Y-105.63
X216.154Y-80.264
X216.154Y-99.06
T8
G00X194.302Y-110.9
M15
G01X195.602Y-110.9
M16
G05
G00X194.302Y-122.1
M15
G01X195.602Y-122.1
M16
G05
M30
