%TF.GenerationSoftware,KiCad,Pcbnew,8.0.8+dfsg-1*%
%TF.CreationDate,2025-07-28T19:23:35+05:30*%
%TF.ProjectId,SysMon_main,5379734d-6f6e-45f6-9d61-696e2e6b6963,1*%
%TF.SameCoordinates,Original*%
%TF.FileFunction,Soldermask,Bot*%
%TF.FilePolarity,Negative*%
%FSLAX46Y46*%
G04 Gerber Fmt 4.6, Leading zero omitted, Abs format (unit mm)*
G04 Created by KiCad (PCBNEW 8.0.8+dfsg-1) date 2025-07-28 19:23:35*
%MOMM*%
%LPD*%
G01*
G04 APERTURE LIST*
G04 Aperture macros list*
%AMRoundRect*
0 Rectangle with rounded corners*
0 $1 Rounding radius*
0 $2 $3 $4 $5 $6 $7 $8 $9 X,Y pos of 4 corners*
0 Add a 4 corners polygon primitive as box body*
4,1,4,$2,$3,$4,$5,$6,$7,$8,$9,$2,$3,0*
0 Add four circle primitives for the rounded corners*
1,1,$1+$1,$2,$3*
1,1,$1+$1,$4,$5*
1,1,$1+$1,$6,$7*
1,1,$1+$1,$8,$9*
0 Add four rect primitives between the rounded corners*
20,1,$1+$1,$2,$3,$4,$5,0*
20,1,$1+$1,$4,$5,$6,$7,0*
20,1,$1+$1,$6,$7,$8,$9,0*
20,1,$1+$1,$8,$9,$2,$3,0*%
G04 Aperture macros list end*
%ADD10R,1.800000X1.800000*%
%ADD11C,1.800000*%
%ADD12C,3.200000*%
%ADD13C,1.700000*%
%ADD14C,4.000000*%
%ADD15C,2.500000*%
%ADD16R,1.700000X1.700000*%
%ADD17O,1.700000X1.700000*%
%ADD18C,1.524000*%
%ADD19R,2.000000X2.000000*%
%ADD20C,2.000000*%
%ADD21R,3.200000X2.000000*%
%ADD22C,1.500000*%
%ADD23RoundRect,0.250000X0.262500X0.450000X-0.262500X0.450000X-0.262500X-0.450000X0.262500X-0.450000X0*%
%ADD24RoundRect,0.250000X0.450000X-0.262500X0.450000X0.262500X-0.450000X0.262500X-0.450000X-0.262500X0*%
%ADD25RoundRect,0.250000X-0.475000X0.250000X-0.475000X-0.250000X0.475000X-0.250000X0.475000X0.250000X0*%
%ADD26RoundRect,0.250000X-0.250000X-0.475000X0.250000X-0.475000X0.250000X0.475000X-0.250000X0.475000X0*%
%ADD27C,3.570000*%
%ADD28RoundRect,0.250000X0.503814X0.132583X0.132583X0.503814X-0.503814X-0.132583X-0.132583X-0.503814X0*%
%ADD29RoundRect,0.250000X0.475000X-0.250000X0.475000X0.250000X-0.475000X0.250000X-0.475000X-0.250000X0*%
%ADD30RoundRect,0.075000X0.075000X-0.662500X0.075000X0.662500X-0.075000X0.662500X-0.075000X-0.662500X0*%
%ADD31RoundRect,0.075000X0.662500X-0.075000X0.662500X0.075000X-0.662500X0.075000X-0.662500X-0.075000X0*%
%ADD32RoundRect,0.250000X0.512652X0.159099X0.159099X0.512652X-0.512652X-0.159099X-0.159099X-0.512652X0*%
%ADD33RoundRect,0.250000X0.250000X0.475000X-0.250000X0.475000X-0.250000X-0.475000X0.250000X-0.475000X0*%
%ADD34C,1.000000*%
G04 APERTURE END LIST*
D10*
%TO.C,D18*%
X131603000Y-81561500D03*
D11*
X134143000Y-81561500D03*
%TD*%
D10*
%TO.C,D17*%
X122603000Y-81561500D03*
D11*
X125143000Y-81561500D03*
%TD*%
D10*
%TO.C,D19*%
X140603000Y-81561500D03*
D11*
X143143000Y-81561500D03*
%TD*%
D12*
%TO.C,H3*%
X216000000Y-143000000D03*
%TD*%
D13*
%TO.C,SW5*%
X125920000Y-116500000D03*
D14*
X131000000Y-116500000D03*
D13*
X136080000Y-116500000D03*
D15*
X134810000Y-119040000D03*
X128460000Y-121580000D03*
%TD*%
D12*
%TO.C,H4*%
X59000000Y-143000000D03*
%TD*%
D16*
%TO.C,J6*%
X146050000Y-101463312D03*
D17*
X148590000Y-101463312D03*
X151130000Y-101463312D03*
%TD*%
D10*
%TO.C,D1*%
X77603000Y-71561500D03*
D11*
X80143000Y-71561500D03*
%TD*%
D18*
%TO.C,J4*%
X202692000Y-128524000D03*
X202692000Y-136144000D03*
X187452000Y-136144000D03*
X187452000Y-128524000D03*
%TD*%
D10*
%TO.C,D14*%
X95603000Y-81561500D03*
D11*
X98143000Y-81561500D03*
%TD*%
D13*
%TO.C,SW10*%
X106420000Y-136000000D03*
D14*
X111500000Y-136000000D03*
D13*
X116580000Y-136000000D03*
D15*
X115310000Y-138540000D03*
X108960000Y-141080000D03*
%TD*%
D13*
%TO.C,SW12*%
X145420000Y-136000000D03*
D14*
X150500000Y-136000000D03*
D13*
X155580000Y-136000000D03*
D15*
X154310000Y-138540000D03*
X147960000Y-141080000D03*
%TD*%
D19*
%TO.C,SW1*%
X187452000Y-114000000D03*
D20*
X187452000Y-119000000D03*
X187452000Y-116500000D03*
D21*
X194952000Y-110900000D03*
X194952000Y-122100000D03*
D20*
X201952000Y-119000000D03*
X201952000Y-114000000D03*
%TD*%
D10*
%TO.C,D5*%
X113603000Y-71561500D03*
D11*
X116143000Y-71561500D03*
%TD*%
D13*
%TO.C,SW7*%
X164920000Y-116500000D03*
D14*
X170000000Y-116500000D03*
D13*
X175080000Y-116500000D03*
D15*
X173810000Y-119040000D03*
X167460000Y-121580000D03*
%TD*%
D22*
%TO.C,Y2*%
X111760000Y-104140000D03*
X116640000Y-104140000D03*
%TD*%
D10*
%TO.C,D26*%
X104603000Y-91561500D03*
D11*
X107143000Y-91561500D03*
%TD*%
D10*
%TO.C,D6*%
X122603000Y-71561500D03*
D11*
X125143000Y-71561500D03*
%TD*%
D10*
%TO.C,D31*%
X149603000Y-91561500D03*
D11*
X152143000Y-91561500D03*
%TD*%
D12*
%TO.C,H2*%
X216000000Y-64770000D03*
%TD*%
D10*
%TO.C,D3*%
X95603000Y-71561500D03*
D11*
X98143000Y-71561500D03*
%TD*%
D10*
%TO.C,D2*%
X86603000Y-71561500D03*
D11*
X89143000Y-71561500D03*
%TD*%
D10*
%TO.C,D21*%
X158603000Y-81561500D03*
D11*
X161143000Y-81561500D03*
%TD*%
D22*
%TO.C,Y1*%
X186690000Y-87430000D03*
X186690000Y-82550000D03*
%TD*%
D13*
%TO.C,SW8*%
X67420000Y-136000000D03*
D14*
X72500000Y-136000000D03*
D13*
X77580000Y-136000000D03*
D15*
X76310000Y-138540000D03*
X69960000Y-141080000D03*
%TD*%
D10*
%TO.C,D22*%
X167603000Y-81561500D03*
D11*
X170143000Y-81561500D03*
%TD*%
D10*
%TO.C,D25*%
X95603000Y-91561500D03*
D11*
X98143000Y-91561500D03*
%TD*%
D10*
%TO.C,D15*%
X104603000Y-81561500D03*
D11*
X107143000Y-81561500D03*
%TD*%
D10*
%TO.C,D28*%
X122603000Y-91561500D03*
D11*
X125143000Y-91561500D03*
%TD*%
D10*
%TO.C,D23*%
X77603000Y-91561500D03*
D11*
X80143000Y-91561500D03*
%TD*%
D13*
%TO.C,SW4*%
X106420000Y-116500000D03*
D14*
X111500000Y-116500000D03*
D13*
X116580000Y-116500000D03*
D15*
X115310000Y-119040000D03*
X108960000Y-121580000D03*
%TD*%
D10*
%TO.C,D27*%
X113603000Y-91561500D03*
D11*
X116143000Y-91561500D03*
%TD*%
D13*
%TO.C,SW13*%
X164920000Y-136000000D03*
D14*
X170000000Y-136000000D03*
D13*
X175080000Y-136000000D03*
D15*
X173810000Y-138540000D03*
X167460000Y-141080000D03*
%TD*%
D10*
%TO.C,D10*%
X158603000Y-71561500D03*
D11*
X161143000Y-71561500D03*
%TD*%
D13*
%TO.C,SW2*%
X67420000Y-116500000D03*
D14*
X72500000Y-116500000D03*
D13*
X77580000Y-116500000D03*
D15*
X76310000Y-119040000D03*
X69960000Y-121580000D03*
%TD*%
D16*
%TO.C,SW14*%
X151130000Y-105511600D03*
D17*
X148590000Y-105511600D03*
X146050000Y-105511600D03*
%TD*%
D13*
%TO.C,SW11*%
X125920000Y-136000000D03*
D14*
X131000000Y-136000000D03*
D13*
X136080000Y-136000000D03*
D15*
X134810000Y-138540000D03*
X128460000Y-141080000D03*
%TD*%
D13*
%TO.C,SW6*%
X145420000Y-116500000D03*
D14*
X150500000Y-116500000D03*
D13*
X155580000Y-116500000D03*
D15*
X154310000Y-119040000D03*
X147960000Y-121580000D03*
%TD*%
D10*
%TO.C,D9*%
X149603000Y-71561500D03*
D11*
X152143000Y-71561500D03*
%TD*%
D10*
%TO.C,D20*%
X149603000Y-81561500D03*
D11*
X152143000Y-81561500D03*
%TD*%
D10*
%TO.C,D7*%
X131603000Y-71561500D03*
D11*
X134143000Y-71561500D03*
%TD*%
D10*
%TO.C,D29*%
X131603000Y-91561500D03*
D11*
X134143000Y-91561500D03*
%TD*%
D12*
%TO.C,H1*%
X59000000Y-65000000D03*
%TD*%
D10*
%TO.C,D13*%
X86603000Y-81561500D03*
D11*
X89143000Y-81561500D03*
%TD*%
D10*
%TO.C,D11*%
X167603000Y-71561500D03*
D11*
X170143000Y-71561500D03*
%TD*%
D10*
%TO.C,D30*%
X140603000Y-91561500D03*
D11*
X143143000Y-91561500D03*
%TD*%
D10*
%TO.C,D33*%
X167603000Y-91561500D03*
D11*
X170143000Y-91561500D03*
%TD*%
D10*
%TO.C,D32*%
X158603000Y-91561500D03*
D11*
X161143000Y-91561500D03*
%TD*%
D10*
%TO.C,D4*%
X104603000Y-71561500D03*
D11*
X107143000Y-71561500D03*
%TD*%
D10*
%TO.C,D12*%
X77603000Y-81561500D03*
D11*
X80143000Y-81561500D03*
%TD*%
D13*
%TO.C,SW9*%
X86920000Y-136000000D03*
D14*
X92000000Y-136000000D03*
D13*
X97080000Y-136000000D03*
D15*
X95810000Y-138540000D03*
X89460000Y-141080000D03*
%TD*%
D10*
%TO.C,D16*%
X113603000Y-81561500D03*
D11*
X116143000Y-81561500D03*
%TD*%
D10*
%TO.C,D24*%
X86603000Y-91561500D03*
D11*
X89143000Y-91561500D03*
%TD*%
D10*
%TO.C,D8*%
X140603000Y-71561500D03*
D11*
X143143000Y-71561500D03*
%TD*%
D13*
%TO.C,SW3*%
X86920000Y-116500000D03*
D14*
X92000000Y-116500000D03*
D13*
X97080000Y-116500000D03*
D15*
X95810000Y-119040000D03*
X89460000Y-121580000D03*
%TD*%
D23*
%TO.C,R35*%
X213044500Y-117638000D03*
X211219500Y-117638000D03*
%TD*%
D24*
%TO.C,R3*%
X83500000Y-96000000D03*
X83500000Y-94175000D03*
%TD*%
D25*
%TO.C,C5*%
X186701319Y-90456785D03*
X186701319Y-92356785D03*
%TD*%
D24*
%TO.C,R5*%
X101750000Y-96162500D03*
X101750000Y-94337500D03*
%TD*%
D25*
%TO.C,C7*%
X142443200Y-107914400D03*
X142443200Y-109814400D03*
%TD*%
D26*
%TO.C,C13*%
X190906400Y-127304800D03*
X192806400Y-127304800D03*
%TD*%
D22*
%TO.C,J2*%
X208464000Y-95560000D03*
X208464000Y-98060000D03*
X208464000Y-100060000D03*
X208464000Y-102560000D03*
D27*
X211174000Y-92490000D03*
X216154000Y-99060000D03*
X211174000Y-105630000D03*
%TD*%
D24*
%TO.C,R37*%
X187452000Y-111045000D03*
X187452000Y-109220000D03*
%TD*%
D28*
%TO.C,R47*%
X73202896Y-108862073D03*
X71912426Y-107571603D03*
%TD*%
D29*
%TO.C,C16*%
X123825000Y-98994000D03*
X123825000Y-97094000D03*
%TD*%
D24*
%TO.C,R10*%
X146750000Y-95662500D03*
X146750000Y-93837500D03*
%TD*%
D29*
%TO.C,C12*%
X125933200Y-98978800D03*
X125933200Y-97078800D03*
%TD*%
D24*
%TO.C,R8*%
X128750000Y-95412500D03*
X128750000Y-93587500D03*
%TD*%
D26*
%TO.C,C15*%
X137800000Y-99568000D03*
X139700000Y-99568000D03*
%TD*%
D18*
%TO.C,J1*%
X208534000Y-127762000D03*
X208534000Y-125222000D03*
X208534000Y-122682000D03*
X208534000Y-120142000D03*
X208534000Y-117602000D03*
X208534000Y-115062000D03*
X208534000Y-112522000D03*
X208534000Y-109982000D03*
%TD*%
D26*
%TO.C,C14*%
X190936800Y-125171200D03*
X192836800Y-125171200D03*
%TD*%
D30*
%TO.C,U1*%
X135080000Y-108655000D03*
X134580000Y-108655000D03*
X134080000Y-108655000D03*
X133580000Y-108655000D03*
X133080000Y-108655000D03*
X132580000Y-108655000D03*
X132080000Y-108655000D03*
X131580000Y-108655000D03*
X131080000Y-108655000D03*
X130580000Y-108655000D03*
X130080000Y-108655000D03*
X129580000Y-108655000D03*
D31*
X128167500Y-107242500D03*
X128167500Y-106742500D03*
X128167500Y-106242500D03*
X128167500Y-105742500D03*
X128167500Y-105242500D03*
X128167500Y-104742500D03*
X128167500Y-104242500D03*
X128167500Y-103742500D03*
X128167500Y-103242500D03*
X128167500Y-102742500D03*
X128167500Y-102242500D03*
X128167500Y-101742500D03*
D30*
X129580000Y-100330000D03*
X130080000Y-100330000D03*
X130580000Y-100330000D03*
X131080000Y-100330000D03*
X131580000Y-100330000D03*
X132080000Y-100330000D03*
X132580000Y-100330000D03*
X133080000Y-100330000D03*
X133580000Y-100330000D03*
X134080000Y-100330000D03*
X134580000Y-100330000D03*
X135080000Y-100330000D03*
D31*
X136492500Y-101742500D03*
X136492500Y-102242500D03*
X136492500Y-102742500D03*
X136492500Y-103242500D03*
X136492500Y-103742500D03*
X136492500Y-104242500D03*
X136492500Y-104742500D03*
X136492500Y-105242500D03*
X136492500Y-105742500D03*
X136492500Y-106242500D03*
X136492500Y-106742500D03*
X136492500Y-107242500D03*
%TD*%
D24*
%TO.C,R11*%
X155500000Y-95750000D03*
X155500000Y-93925000D03*
%TD*%
%TO.C,R6*%
X110750000Y-96000000D03*
X110750000Y-94175000D03*
%TD*%
%TO.C,R12*%
X165000000Y-95500000D03*
X165000000Y-93675000D03*
%TD*%
D25*
%TO.C,C8*%
X140411200Y-107914400D03*
X140411200Y-109814400D03*
%TD*%
D24*
%TO.C,R9*%
X139000000Y-95662500D03*
X139000000Y-93837500D03*
%TD*%
D29*
%TO.C,C21*%
X189611000Y-105852000D03*
X189611000Y-103952000D03*
%TD*%
D23*
%TO.C,R36*%
X212790500Y-128052000D03*
X210965500Y-128052000D03*
%TD*%
D26*
%TO.C,C10*%
X107320000Y-104140000D03*
X109220000Y-104140000D03*
%TD*%
D23*
%TO.C,R46*%
X133350000Y-112268000D03*
X131525000Y-112268000D03*
%TD*%
D32*
%TO.C,C19*%
X71755000Y-110363000D03*
X70411498Y-109019498D03*
%TD*%
D22*
%TO.C,J3*%
X208464000Y-76764000D03*
X208464000Y-79264000D03*
X208464000Y-81264000D03*
X208464000Y-83764000D03*
D27*
X211174000Y-73694000D03*
X216154000Y-80264000D03*
X211174000Y-86834000D03*
%TD*%
D24*
%TO.C,R38*%
X187452000Y-123237000D03*
X187452000Y-121412000D03*
%TD*%
D20*
%TO.C,TP1*%
X198374000Y-139954000D03*
%TD*%
D24*
%TO.C,R4*%
X92750000Y-95912500D03*
X92750000Y-94087500D03*
%TD*%
D33*
%TO.C,C18*%
X184653000Y-110998000D03*
X182753000Y-110998000D03*
%TD*%
D20*
%TO.C,TP3*%
X186944000Y-139954000D03*
%TD*%
D24*
%TO.C,R2*%
X74715800Y-95781500D03*
X74715800Y-93956500D03*
%TD*%
%TO.C,R53*%
X187452000Y-107616000D03*
X187452000Y-105791000D03*
%TD*%
D33*
%TO.C,C17*%
X184399000Y-121666000D03*
X182499000Y-121666000D03*
%TD*%
D20*
%TO.C,TP2*%
X205994000Y-139954000D03*
%TD*%
D24*
%TO.C,R7*%
X119750000Y-96000000D03*
X119750000Y-94175000D03*
%TD*%
%TO.C,R48*%
X65029002Y-124684800D03*
X65029002Y-122859800D03*
%TD*%
D33*
%TO.C,C9*%
X121280000Y-104140000D03*
X119380000Y-104140000D03*
%TD*%
D34*
%TO.C,TP4*%
X134366000Y-114808000D03*
%TD*%
D26*
%TO.C,C20*%
X63124002Y-127050800D03*
X65024000Y-127050800D03*
%TD*%
D29*
%TO.C,C6*%
X186609607Y-80128562D03*
X186609607Y-78228562D03*
%TD*%
M02*
